<?xml version="1.0" encoding="UTF-8" standalone="no"?>
<!-- Created with Inkscape (http://www.inkscape.org/) -->

<svg
   width="210mm"
   height="297mm"
   viewBox="0 0 210 297"
   version="1.1"
   id="svg786"
   xml:space="preserve"
   xmlns:inkscape="http://www.inkscape.org/namespaces/inkscape"
   xmlns:sodipodi="http://sodipodi.sourceforge.net/DTD/sodipodi-0.dtd"
   xmlns="http://www.w3.org/2000/svg"
   xmlns:svg="http://www.w3.org/2000/svg"><sodipodi:namedview
     id="namedview788"
     pagecolor="#ffffff"
     bordercolor="#000000"
     borderopacity="0.25"
     inkscape:showpageshadow="2"
     inkscape:pageopacity="0.0"
     inkscape:pagecheckerboard="0"
     inkscape:deskcolor="#d1d1d1"
     inkscape:document-units="mm"
     showgrid="false" /><defs
     id="defs783"><inkscape:path-effect
       effect="powerclip"
       id="path-effect7"
       is_visible="true"
       lpeversion="1"
       inverse="true"
       flatten="false"
       hide_clip="false"
       message="Utilice la regla de relleno parimpar en el diálogo &lt;b&gt;Relleno y borde&lt;/b&gt; si el resultado no está aplanada después de convertir el recorte en trayectos." /><inkscape:path-effect
       effect="powerclip"
       id="path-effect188"
       is_visible="true"
       lpeversion="1"
       inverse="true"
       flatten="false"
       hide_clip="false"
       message="Utilice la regla de relleno parimpar en el diálogo &lt;b&gt;Relleno y borde&lt;/b&gt; si el resultado no está aplanada después de convertir el recorte en trayectos." /><inkscape:path-effect
       effect="powerclip"
       id="path-effect49"
       is_visible="true"
       lpeversion="1"
       inverse="true"
       flatten="false"
       hide_clip="false"
       message="Utilice la regla de relleno parimpar en el diálogo &lt;b&gt;Relleno y borde&lt;/b&gt; si el resultado no está aplanada después de convertir el recorte en trayectos." /><clipPath
       clipPathUnits="userSpaceOnUse"
       id="clipPath47"><path
         style="display:none;fill:#342828;fill-opacity:1;stroke:none;stroke-width:79.3702;stroke-linecap:round;stroke-opacity:1;paint-order:stroke markers fill"
         d="m 1634.3357,708.85286 0.246,-4.99415 c 5.3138,-1.42898 11.4911,-5.90017 11.3014,0.98401 l -23.6919,49.09947 c -3.1516,3.70297 -12.8932,24.69795 -21.6207,4.05527 -6.0359,-19.86425 14.1361,-33.56402 33.7649,-49.1446 z"
         id="path48"
         sodipodi:nodetypes="cccccc" /><path
         id="lpe_path-effect49"
         style="fill:#342828;fill-opacity:1;stroke:none;stroke-width:79.3702;stroke-linecap:round;stroke-opacity:1;paint-order:stroke markers fill"
         class="powerclip"
         d="m 1682.91,752.59765 h 11.8752 v 12.63671 H 1682.91 Z m -48.5743,-43.74479 h -3e-4 c -19.6288,15.58058 -39.8008,29.28035 -33.7649,49.1446 8.7275,20.64268 18.4691,-0.3523 21.6207,-4.05527 l 23.6919,-49.09947 c 0.1897,-6.88418 -5.9876,-2.41299 -11.3014,-0.98401 z" /></clipPath><clipPath
       clipPathUnits="userSpaceOnUse"
       id="clipath_lpe_path-effect188"><path
         style="display:none;fill:#342828;fill-opacity:1;stroke:none;stroke-width:79.3702;stroke-linecap:round;stroke-opacity:1;paint-order:stroke markers fill"
         d="m 1634.3357,708.85286 0.246,-4.99415 c 5.3138,-1.42898 11.4911,-5.90017 11.3014,0.98401 l -23.6919,49.09947 c -3.1516,3.70297 -12.8932,24.69795 -21.6207,4.05527 -6.0359,-19.86425 14.1361,-33.56402 33.7649,-49.1446 z"
         id="path188"
         sodipodi:nodetypes="cccccc" /><path
         id="lpe_path-effect188"
         style="fill:#342828;fill-opacity:1;stroke:none;stroke-width:79.3702;stroke-linecap:round;stroke-opacity:1;paint-order:stroke markers fill"
         class="powerclip"
         d="m 1682.91,752.59765 h 11.8752 v 12.63671 H 1682.91 Z m -48.5743,-43.74479 h -3e-4 c -19.6288,15.58058 -39.8008,29.28035 -33.7649,49.1446 8.7275,20.64268 18.4691,-0.3523 21.6207,-4.05527 l 23.6919,-49.09947 c 0.1897,-6.88418 -5.9876,-2.41299 -11.3014,-0.98401 z" /></clipPath><clipPath
       clipPathUnits="userSpaceOnUse"
       id="clipath_lpe_path-effect7"><path
         style="display:none;fill:#342828;fill-opacity:1;stroke:none;stroke-width:79.3702;stroke-linecap:round;stroke-opacity:1;paint-order:stroke markers fill"
         d="m 1634.3357,708.85286 0.246,-4.99415 c 5.3138,-1.42898 11.4911,-5.90017 11.3014,0.98401 l -23.6919,49.09947 c -3.1516,3.70297 -12.8932,24.69795 -21.6207,4.05527 -6.0359,-19.86425 14.1361,-33.56402 33.7649,-49.1446 z"
         id="path7"
         sodipodi:nodetypes="cccccc" /><path
         id="lpe_path-effect7"
         style="fill:#342828;fill-opacity:1;stroke:none;stroke-width:79.3702;stroke-linecap:round;stroke-opacity:1;paint-order:stroke markers fill"
         class="powerclip"
         d="m 1682.91,752.59765 h 11.8752 v 12.63671 H 1682.91 Z m -48.5743,-43.74479 h -3e-4 c -19.6288,15.58058 -39.8008,29.28035 -33.7649,49.1446 8.7275,20.64268 18.4691,-0.3523 21.6207,-4.05527 l 23.6919,-49.09947 c 0.1897,-6.88418 -5.9876,-2.41299 -11.3014,-0.98401 z" /></clipPath></defs><g
     inkscape:label="Layer 1"
     inkscape:groupmode="layer"
     id="layer1"><g
       transform="matrix(0.03527778,0,0,-0.03527778,-515.4935,160.59427)"
       fill="#000000"
       stroke="none"
       id="g46"><path
         style="fill:#ff0000;fill-opacity:1;stroke:none;stroke-width:79.3702;stroke-linecap:round;stroke-opacity:1;paint-order:stroke markers fill"
         d="m 1689.7852,757.91992 -0.3518,-0.32227 -1.5234,2.63671 z"
         id="path46"
         clip-path="url(#clipPath47)"
         inkscape:path-effect="#path-effect49"
         inkscape:original-d="m 1689.7852,757.91992 -0.3518,-0.32227 -1.5234,2.63671 z" /><path
         style="fill:none;stroke:#423b46"
         d="m 5886.0072,1355.2524 -5.6764,-30.0117 -26.1854,-6.4991 -53.1031,-0.013 -35.402,0.011 -49.5628,1.9945 -41.3571,-0.7002 -8.2386,18.3508 -3.5073,16.8679 c 38.8194,10.4291 124.1864,5.6191 177.0101,5.6191 18.0344,0 30.7062,-0.4085 49.5628,-0.7501 15.0597,-0.2728 22.8058,1.0397 35.402,0.6374 22.5748,-0.7211 50.4518,-4.5403 74.3443,-7.1214 11.4486,-1.2369 19.4244,-1.1907 31.8618,-1.1945 26.9108,-0.01 52.0125,1.6369 77.8844,-4.6631 28.5798,-6.9593 46.4492,-8.6667 74.3443,-11.3941 16.6727,-1.6303 35.1111,-2.772 53.103,-7.4249 15.6256,-4.0409 26.2602,-8.6393 42.4824,-10.011 16.2427,-1.3734 26.8744,-1.9641 42.4824,-5.6581 21.5904,-5.1098 55.844,-16.5005 66.7831,-31.2083 8.9333,-12.011 2.8056,-14.6871 13.9998,-22.3982 8.4495,-5.8204 21.8709,-7.2702 28.9634,-9.7183 9.1247,-3.1496 28.6155,-7.5556 38.9422,-11.6133 34.2275,-13.4488 89.8221,-29.9729 120.2986,-48.4859 18.6505,-11.3292 21.5411,-18.253 16.2287,-36.9011 -6.0627,-21.2815 -15.002,-24.2594 -9.3341,-41.0351 1.8384,-5.441 9.169,-7.1678 11.0904,-7.7024 11.5901,-3.2239 18.0979,-1.788 24.5657,-1.8339 m -1561.2291,129.2381 c 13.6174,6.7167 26.3357,11.5223 56.6432,14.8411 9.6768,1.0596 19.1912,2.3355 28.3217,5.5453 15.9292,5.5997 26.7073,9.9234 46.0226,10.488 12.0133,0.3512 23.9298,3.086 35.3993,2.4975 16.1137,-0.8267 18.9493,-6.5629 25.9559,-16.519 8.6809,-12.3352 13.543,-18.9413 15.6334,-22.4697 0.8107,-1.3687 4.2841,-4.6375 0.8167,-10.8653 -4.6962,-8.4349 -16.2641,-10.8559 -31.7827,-11.5005 -18.2907,-0.7596 -26.6908,-0.5844 -42.4824,-6.924 -15.1136,-6.0673 -24.7044,-8.1401 -42.4824,-9.9156 -12.3568,-1.234 -39.4721,-8.7908 -53.0895,-6.0615 -18.7162,3.7513 -19.6593,12.7269 -22.1808,17.1717 -0.8182,1.4423 -1.4312,5.1857 -3.2644,11.2358 -2.232,7.3666 -5.5556,11.7124 -7.3644,13.6315 -6.216,6.5946 -19.4898,8.8427 -41.5482,8.8447 0,10.4858 -1.4939,26.2539 2.1361,33.5909 4.6893,9.4782 10.6938,11.6234 22.648,14.7325 12.2654,3.19 29.5689,4.6596 42.4797,8.0796 19.3931,5.137 36.9329,8.581 56.6433,11.8278 19.7428,3.2521 52.2142,9.573 67.2638,10.1715 12.772,0.5079 20.855,0.3267 30.8511,-11.1254 14.1981,-16.2661 18.1475,-17.9262 39.9529,-16.5386 21.1172,1.3439 28.0604,11.6008 33.296,16.5928 1.6108,1.5359 4.895,5.2399 10.1973,10.1433 5.5348,5.1185 9.4678,8.402 11.1668,9.8203 5.451,4.5504 16.1267,16.215 48.0058,16.6492 15.1824,0.2068 25.8653,1.6055 31.8618,1.9617 15.5165,0.9217 23.4841,-4.446 35.402,-13.1913 12.3197,11.9964 15.8199,22.0131 38.9423,24.8696 32.0634,3.961 127.32,8.8447 152.2287,8.8447 M 5347.8965,1310.3 c 9.4259,-7.2376 15.1018,-15.6453 35.402,-16.6512 7.8596,-0.3894 28.6887,1.5447 42.4824,2.8984 30.2858,2.9721 29.448,11.6589 46.0226,27.8004 14.4964,-11.131 17.7626,-16.0757 38.9423,-16.8029 14.3375,-0.4923 37.1928,2.3474 49.1914,-2.9418 11.6363,-5.1294 11.2321,-7.4616 15.9691,-16.7813 3.0171,-5.9361 4.5594,-9.9004 5.5888,-11.2336 4.0361,-5.2271 6.0476,-11.3707 21.2987,-16.3045 10.4205,-3.3711 27.6598,-0.8509 38.9394,-0.4443 10.5952,0.3819 21.2039,2.0313 31.8619,2.6989 0.3556,13.6747 5.4864,26.4026 1.1037,45.876 l -1.1037,4.6954 m 212.4121,11.2381 c 13.0964,-7.4761 19.4279,-7.6257 42.4824,-8.6691 11.2233,-0.5079 22.9878,-0.097 35.402,-0.4771 21.9474,-0.672 48.696,-1.5611 67.2639,0.7177 m -771.7641,-11.2381 c 4.465,3.2768 12.9508,11.0745 28.3216,14.1083 9.9562,1.9652 17.8274,2.3748 21.2412,2.3326 13.2955,-0.1646 20.163,-5.3462 28.3217,-10.8219 m 230.1131,0 c 34.2728,6.7008 70.2809,6.8436 95.5855,8.4286 M 5461.1829,1310.3 c 6.1963,-6.8362 10.6031,-18.3977 10.6206,-33.7143 0.013,-11.0928 -4.2629,-17.9661 5.6764,-26.6493 11.5845,-10.1207 39.1691,-5.2267 58.0473,-3.4533 29.475,2.7689 41.1432,1.0474 63.7236,13.2455 m -343.3996,28.0952 -7.0804,-16.8571 m -212.4121,-39.3334 c -12.1519,-6.3494 -42.2154,-19.43 -70.8041,-24.4923 -11.5649,-2.0478 -21.2815,-4.0723 -31.8618,-8.3375 -10.824,-4.3635 -20.7897,-7.3839 -31.8618,-9.6881 -12.4231,-2.5854 -17.7737,-7.067 -31.8618,-10.8154 -14.5559,-3.8727 -29.0594,-0.4412 -34.2794,3.6549 -2.4407,1.9153 -5.4236,6.4288 -8.7876,13.1438 -4.5813,9.1447 -12.1793,15.5584 -13.5762,16.8679 45.0985,25.4602 120.3963,42.2275 177.0101,50.7558 18.5657,2.7969 29.4897,4.3976 46.0226,5.4347 m 640.7766,-8.4285 c 24.1528,0 33.3408,0 56.6432,0 29.9891,0 47.5155,-1.1784 74.3442,1.6172 24.1968,2.5213 57.4858,3.2933 81.4247,1.8837 15.7958,-0.9301 25.4884,-0.6914 42.4824,-0.6914 23.4532,0 40.7571,3.1888 59.9922,-3.2257 8.9532,-2.9858 35.2488,-25.2106 40.8545,-30.9655 10.3765,-10.6525 9.1595,-23.9701 19.4137,-35.9235 10.7759,-12.5617 22.1213,-11.0887 33.6919,-20.9651 11.1974,-9.5578 10.9515,-24.7169 23.5304,-35.0541 11.2703,-9.2617 30.8292,-17.555 44.9355,-15.771 12.3391,1.5605 14.4711,8.0258 16.0565,10.022 6.0961,7.676 -2.8946,20.3507 27.0405,39.1686 m 201.7915,87.0952 c -12.6535,-10.9033 -24.2293,-22.2964 -36.2761,-33.712 -7.4907,-7.0983 -14.6085,-15.6947 -27.5869,-21.6958 -14.0033,-6.4749 -31.9139,-7.0139 -45.8833,-5.9226 -21.193,1.6558 -37.7129,6.5631 -56.6432,16.378 m -945.234,5.6191 c 15.9007,0.996 22.8255,2.3736 38.9423,2.8399 15.3088,0.4429 36.4713,4.6279 53.103,7.1061 45.8867,6.8372 60.7675,4.0528 95.5854,18.1492 m -637.2363,-70.2381 c -29.1202,-16.5977 -72.6517,-31.8499 -106.2034,-42.7194 -15.0661,-4.8808 -19.4738,-12.7233 -35.7216,-17.436 -25.7165,-7.4594 -34.7307,4.3393 -41.1085,9.7488 -1.4772,1.253 -4.4761,5.036 -9.1317,11.0602 -7.2202,9.3429 -15.4165,15.7669 -16.7068,16.8702 35.4475,23.1165 79.1607,30.6963 120.3669,45.6006 25.5487,9.2411 39.9795,11.91 63.7237,13.3994 M 6116.1203,1192.3 c -14.9231,-11.8431 -18.2462,-14.4803 -24.7814,-19.6667 m -1214.2893,5.619 5.1464,-6.0655 c 15.6753,-25.242 9.3364,-39.2298 33.9379,-45.3686 6.1302,-1.5296 21.7627,1.0242 28.1795,1.9466 13.7754,1.9803 26.0004,4.381 38.9423,9.7185 11.8855,4.9017 22.1123,7.9791 35.402,10.4728 33.7498,6.3327 60.2415,15.6507 84.9648,29.2962 M 5847.065,613.53782 c -12.9627,4.05378 -20.7114,11.37443 -49.5629,16.50819 -29.3776,5.22739 -66.869,5.39613 -102.6658,2.6816 -19.493,-1.47816 -26.1939,-3.42514 -42.4825,-4.66528 -13.5657,-1.03282 -34.3793,-2.11194 -49.5628,-1.49359 -16.7868,0.68352 -26.97,0.71833 -42.4824,-1.03196 -40.9098,-4.61573 -88.9476,-10.58219 -130.9875,-12.10956 -20.4009,-0.74114 -37.5137,-5.30422 -60.1834,-7.51373 -22.5975,-2.20249 -53.7195,-1.97442 -77.8845,-4.41595 -46.6008,-4.70815 -64.6052,-15.2581 -106.206,-21.44852 -7.0318,-1.04637 -25.7571,-5.64032 -35.4021,-5.96801 -22.2668,-0.75675 -28.2221,11.36585 -31.8618,14.18618 -11.8467,9.17982 -22.9053,18.65974 -35.402,27.95669 -6.7269,5.00464 -11.0181,12.83698 -35.402,14.04763 -21.4798,1.06643 -34.5588,0.57205 -56.6432,-1.92521 -14.554,-1.64569 -28.7312,-3.06246 -42.4825,-3.67018 -11.8347,-0.52301 -20.6596,-2.20986 -31.8618,-2.59912 -29.4148,-1.02219 -43.8038,0.52902 -60.1834,-0.36199 -6.9435,-0.37777 -14.6969,-1.31457 -31.8618,-3.32122 -40.0281,-4.67952 -44.1111,-4.81739 -74.3443,-4.85597 -11.2195,-0.0142 -19.7165,-0.0396 -31.8618,-1.72783 -24.3643,-3.38673 -43.6508,-5.33422 -67.2638,-7.17763 -19.7019,-1.53817 -32.0841,-3.10773 -53.1031,-8.05355 -19.3734,-4.55862 -31.0109,-7.37826 -49.5628,-8.5673 -16.2547,-1.04174 -27.4036,-2.03924 -42.4824,-3.77204 -26.206,-3.01153 -56.6704,-4.87774 -81.4247,-6.74859 -11.9128,-0.90027 -18.9248,0.32701 -35.402,-1.71034 -10.9822,-1.35795 -17.2763,-2.66188 -21.2412,-3.15214 -12.5982,-1.55772 -24.8749,-1.04929 -35.402,-2.03564 -34.7928,-3.25983 -67.3887,-5.54445 -127.4473,-12.05091 -11.1955,-1.21288 -35.2003,-0.81093 -53.103,-5.36337 -29.1795,-7.41985 -57.0551,-26.15333 -77.8845,-33.75109 -44.3533,-16.17826 -65.2752,-28.69946 -99.1256,-45.88671 -60.1503,-30.54072 -112.7386,-62.62305 -166.3895,-93.08069 -28.145,-15.97788 -80.4032,-30.628 -106.2061,-30.82675 -28.9151,-0.22275 -29.9448,12.36164 -38.9422,19.4759 -10.4783,8.28522 -18.5239,14.70071 -35.4021,28.09525 -10.814,8.58205 -29.5362,21.01991 -36.4864,30.90478 -6.445,9.16628 -0.7214,19.18267 4.3405,42.14288 1.2549,5.69175 5.2579,18.21527 9.8093,25.28572 15.4419,23.98814 27.7269,39.98446 48.2927,61.80955 11.4722,12.17472 20.0405,24.1351 33.9761,34.9066 9.8718,7.63051 18.3159,15.57551 26.2018,24.09343 10.4999,11.34133 14.7042,23.08855 23.8172,33.7143 14.0005,16.3247 34.6882,33.28714 52.8981,47.76192 10.614,8.43681 21.1449,16.42536 31.545,25.28573 12.5125,10.66004 21.7226,20.25433 35.7216,30.65338 11.9088,8.8463 23.4826,16.39364 35.3993,25.50676 14.6198,11.18014 25.9856,18.73486 42.4824,30.14392 36.3001,25.10482 71.4841,50.72956 109.7463,75.35629 98.816,63.601 211.2807,119.73645 318.6182,166.46865 16.3098,7.101 31.6263,16.3768 49.5628,23.0529 41.6542,15.5038 82.9588,34.0996 123.9071,50.5107 28.7481,11.5218 62.236,24.671 92.0452,28.1647 m 226.573,-22.4762 31.8618,-25.2857 c -24.3736,-12.8207 -30.1476,-6.9393 -53.103,-17.9867 -15.908,-7.6559 -27.1358,-14.537 -46.0227,-19.6363 -11.4725,-3.0975 -23.3991,-1.8045 -33.6374,-6.174 -10.4589,-4.4636 -17.8719,-18.8734 -23.3773,-20.653 -13.8556,-4.4789 -19.2713,4.6715 -24.2515,8.2314 -5.3005,3.7888 -9.5526,7.4888 -14.3192,11.2662 m 223.0327,64.6191 -24.7814,-19.6667 m 1270.9325,14.0476 c 15.9014,-8.3294 23.7704,-8.4217 46.0227,-8.4286 12.8998,0 24.1643,0 38.9422,0 34.4802,-0.011 79.7375,-2.3221 113.2865,-14.145 29.4577,-10.381 61.9191,-22.044 95.5854,-26.3372 15.72,-2.0046 25.3769,-1.6659 42.4824,-1.6606 15.1678,0 25.7691,-0.6462 38.9287,3.616 10.565,3.4218 17.0311,8.2356 25.2047,14.8692 12.2554,9.9461 20.3237,14.501 27.9119,18.0386 m -1925.8699,8.4286 c -28.1702,-21.1471 -88.36,-41.0967 -123.9071,-57.1357 -17.8451,-8.0519 -37.1527,-22.135 -50.8904,-31.3362 -11.0858,-7.4251 -22.7631,-6.6377 -37.6147,-9.5775 -11.2099,-2.2192 -18.732,-4.204 -27.7206,-9.7792 -11.1952,-6.94389 -20.5066,-15.36149 -32.4655,-21.5874 -40.1431,-20.89893 -126.3136,-65.55587 -137.8849,-89.72698 -11.6945,-24.4285 -14.9026,-29.09343 -20.561,-42.14287 -2.239,-5.16343 -4.2196,-9.20847 -4.4007,-25.28573 -19.3172,10.29959 -34.8565,13.67191 -67.2638,8.41777 -9.3898,-1.52239 -27.8548,-1.75784 -39.994,-14.41184 -12.9669,-13.5169 -9.8874,-23.43015 -12.2459,-30.52975 -1.7667,-5.31845 -3.5887,-9.34377 -5.4059,-14.04763 -2.5996,-6.72921 -6.3519,-13.70895 -6.9765,-19.66667 -1.8491,-17.63584 40.4965,-42.66315 57.5419,-56.1905 17.6572,-14.01299 32.3481,-20.86275 37.0109,-33.7143 3.8284,-10.55184 -6.424,-25.78594 -12.2404,-39.33335 -6.3116,-14.70062 -14.1746,-29.91671 -19.9984,-44.9524 -1.4511,-3.7465 -4.3126,-8.16467 -4.7721,-25.28573 m 548.7313,556.28598 13.2757,-16.8702 11.656,-14.0303 21.0909,-19.671 m -67.2638,-25.2857 c -7.1027,7.7617 -8.7682,15.8176 0,22.4762 3.6768,-10.0326 0.602,-17.5583 6.687,-24.3513 3.7026,-4.1334 8.6151,-7.8941 32.2552,-0.9344 m -60.1834,16.8571 h 7.0804 m -56.6433,-16.8571 c 25.8706,-2.8373 26.7825,-6.2306 31.8619,-9.2677 6.618,-3.957 14.7183,-32.01592 53.103,3.6486 m -205.3317,-8.4286 5.9167,-4.6826 c 6.3372,-4.8525 33.7516,-22.81328 64.8873,-29.03165 -9.9161,17.92445 7.908,28.07605 24.7814,28.09525 m 81.4247,-5.6191 c -12.4642,-6.8041 -24.4548,-14.98231 -38.9423,-22.94001 -12.4596,-6.84375 -23.1385,-9.97583 -38.0243,-16.32179 -27.4944,-11.72098 -35.8385,-21.06303 -43.3839,-18.21629 -4.5588,1.71994 -6.9552,4.34546 -10.0688,6.55327 -4.087,2.89783 -7.4876,5.86358 -11.1888,8.78199 l 21.2412,-28.09525 c -16.6225,-12.6252 -33.0433,-22.02109 -49.246,-34.15003 -28.573,-21.38902 -55.8649,-40.28986 -81.7415,-48.40137 -16.7379,-5.24694 -18.858,-8.02063 -35.402,-14.53977 -12.5077,-4.92868 -34.8602,-10.37179 -46.0226,-13.44711 -16.4102,-4.52123 -34.9445,-9.79698 -46.0227,-13.77463 -8.4528,-3.03502 -11.5107,-3.70859 -28.3216,-16.16334 l -31.8618,28.09525 m 318.6182,171.38103 h 3.5402 m 10.6206,-11.2381 21.2412,-16.85715 m -49.5628,8.42857 35.402,-25.28572 m -120.3669,0 c -3.6658,-6.72441 -2.2476,-4.50478 -7.0804,-8.42858 -0.3711,16.50339 47.6126,23.3667 63.7237,22.4762 m -63.7237,-11.2381 14.1608,8.42858 m -35.402,-14.04763 7.0804,-5.61905 -7.0804,5.61905 m 7.0804,-5.61905 h 7.0804 m 120.3669,-2.80952 -3.5402,-2.80953 m -141.6081,-14.04762 14.1608,-5.61905 m -53.103,-2.80953 -10.6206,-2.80952 c 20.357,15.60603 25.746,5.50021 46.0226,2.80952 m -63.7236,-16.85715 7.0804,5.61905 m 28.3216,-8.42857 28.3216,-42.14288 m -81.4246,36.52383 c -4.3591,-19.09942 -25.6431,-34.39405 -38.9423,-44.9524 -11.4105,-9.05894 -17.0332,-13.51793 -38.9422,-30.90478 m 14.1608,-16.85715 c 0,-5.33885 0,-14.01984 0,-28.09525 0,-10.9934 1.1168,-27.26117 -0.2076,-39.33335 -2.1222,-19.34429 -11.1323,-19.95253 -17.5617,-25.28572 -11.7424,-9.7404 -22.984,-18.29467 -45.9543,-36.52383 m 945.2339,-98.33337 c -1.1916,-1.32829 -8.2046,-9.18875 -13.2484,-16.87019 -4.3309,-6.59562 -6.2203,-9.80238 -7.1186,-11.22506 -3.9896,-6.31818 -7.3077,-11.56606 -11.0031,-16.85715 -10.1413,-14.5204 -19.7616,-29.87959 -29.6,-44.9524 -4.5839,-7.0227 -6.4693,-11.64786 -16.8051,-28.09525 -8.8887,-14.14477 -36.6633,-59.45814 -50.5462,-81.47623 -8.9113,-14.13337 -12.7685,-22.81024 -27.6004,-31.00235 -13.1511,-7.26371 -48.0499,-18.88515 -63.5707,-25.66727 -15.4195,-6.73787 -30.5393,-13.86216 -46.0226,-20.80478 -39.438,-17.68368 -82.2589,-32.32163 -120.3669,-52.04772 -33.7184,-17.4539 -68.9154,-33.30978 -102.6658,-49.70205 -24.5607,-11.92899 -54.3001,-21.42571 -77.8845,-33.62547 -11.7654,-6.08616 -20.3369,-11.28029 -31.8618,-18.18166 -36.7781,-22.02384 -79.915,-36.36298 -116.8267,-58.349776 -16.7042,-9.949944 -32.4909,-16.350942 -49.5628,-26.345814 -57.2645,-33.525843 -119.5941,-69.829831 -180.5503,-99.510412 -12.841,-6.252497 -23.3778,-11.980608 -35.402,-19.842271 -23.357,-15.271648 -49.0199,-23.278211 -60.3064,-45.351257 -6.1539,-12.03514 -9.7055,-22.08352 -15.6413,-33.71225 -7.5432,-14.77778 -15.6266,-26.50031 -23.0004,-42.14287 -3.4252,-7.26612 -12.0509,-27.6338 -16.3106,-33.29812 -10.1572,-13.50626 -17.6565,-8.52889 -22.8092,-8.84476 m -336.3192,573.1431 c -3.5252,-3.27843 -10.5302,-9.85451 -24.8197,-18.95126 -12.8178,-8.15986 -20.9693,-16.00772 -25.6145,-20.38423 -20.3253,-19.14941 -31.7587,-27.72965 -44.0013,-39.33121 -15.9236,-15.08996 -31.5503,-36.51285 -47.7763,-46.17728 -29.7026,-17.69131 -61.3837,-15.78274 -91.4416,-21.25132 m 594.754,-429.85732 c 5.0901,-12.7653 12.8573,-21.88425 20.3644,-33.7143 11.813,-18.61568 29.1465,-44.47843 37.8796,-56.1905 12.7998,-17.16582 13.4184,-28.77174 47.9621,-38.13025 11.6559,-3.1578 24.9597,-8.39051 38.9422,-12.14849 22.2566,-5.98207 34.2947,-6.09062 56.6432,-11.60232 19.6446,-4.84482 47.9009,-11.41147 63.7237,-15.20957 9.4281,-2.26319 14.9781,-4.95663 28.3216,-8.33323 11.8398,-2.9961 26.8282,-3.82863 38.9422,-5.31331 21.1428,-2.59157 33.9586,-7.7003 53.103,-9.81824 10.4077,-1.15132 17.5324,-0.0772 28.3216,-1.10571 28.6504,-2.73098 37.0499,-9.89164 60.1835,-12.98102 50.3526,-6.72423 116.539,-9.89215 173.4699,-14.11913 14.8441,-1.1021 21.8969,0.80476 35.402,1.05357 10.3402,0.19052 27.5319,-0.38788 38.9422,0.37726 16.2138,1.08718 27.9416,0.50929 42.4825,0.87369 23.1876,0.58097 47.5461,3.76329 70.804,2.58831 27.0138,-1.36463 51.274,0.24934 77.8844,0.24934 22.1822,0 50.1993,-0.60653 70.8041,1.61945 16.8014,1.81494 26.5632,3.3358 42.4824,3.88899 11.7038,0.40675 26.5247,-0.0363 38.9422,1.30513 15.0814,1.62906 32.6344,4.10712 49.5629,6.03095 16.2744,1.84941 22.3874,0.92153 38.9422,1.24426 16.7144,0.32581 29.9894,2.60923 46.0226,6.76796 37.8737,9.82374 85.9348,13.03692 123.9071,17.28431 15.8399,1.77173 26.7903,3.06417 42.4824,5.5496 15.3605,2.43295 33.4005,3.09332 49.5628,6.17636 54.7805,10.44929 118.9257,20.53556 169.9297,36.84672 12.314,3.93803 18.7237,6.59305 31.8619,8.40251 13.1772,1.81494 26.2382,4.19903 38.9422,8.47642 15.9629,5.37452 26.7911,9.37377 42.4824,12.64063 11.6872,2.43313 23.6604,5.33491 35.402,9.08311 18.3521,5.85878 31.585,10.30577 49.5629,14.59191 26.6128,6.34475 58.6248,15.43386 84.9648,25.33991 14.1615,5.32582 23.8328,9.60218 38.9422,13.39943 26.4681,6.65187 56.6897,19.43226 81.4247,30.8072 49.2964,22.67015 101.7518,41.91018 152.2287,66.08677 47.9952,22.9879 92.249,42.53591 138.0678,66.64151 20.0997,10.574647 38.8593,20.632794 60.1835,28.674168"
         id="path52" /><path
         style="fill:#a0a0a0;stroke:none;stroke-width:1"
         d=""
         id="path106"
         transform="matrix(7.5,0,0,-7.5,0,1120)" /><path
         style="opacity:1;fill:#00148d;fill-opacity:1;stroke:#00148d;stroke-width:0.1;stroke-linecap:round;stroke-linejoin:round;stroke-dasharray:none;stroke-opacity:1;paint-order:stroke markers fill"
         d=""
         id="path111"
         transform="matrix(7.5,0,0,-7.5,0,1120)" /><path
         style="opacity:1;fill:#00148d;fill-opacity:1;stroke:#00148d;stroke-width:0.1;stroke-linecap:round;stroke-linejoin:round;stroke-dasharray:none;stroke-opacity:1;paint-order:stroke markers fill"
         d=""
         id="path114"
         transform="matrix(7.5,0,0,-7.5,0,1120)" /><path
         style="opacity:1;fill:#00148d;fill-opacity:1;stroke:#00148d;stroke-width:0.1;stroke-linecap:round;stroke-linejoin:round;stroke-dasharray:none;stroke-opacity:1;paint-order:stroke markers fill"
         d=""
         id="path115"
         transform="matrix(7.5,0,0,-7.5,0,1120)" /><path
         style="opacity:1;fill:#00148d;fill-opacity:1;stroke:#00148d;stroke-width:0.1;stroke-linecap:round;stroke-linejoin:round;stroke-dasharray:none;stroke-opacity:1;paint-order:stroke markers fill"
         d=""
         id="path119"
         transform="matrix(7.5,0,0,-7.5,0,1120)" /><path
         style="fill:#ff0000;fill-opacity:1;stroke:none;stroke-width:79.3702;stroke-linecap:round;stroke-opacity:1;paint-order:stroke markers fill"
         d="m 1689.7852,757.91992 -0.3518,-0.32227 -1.5234,2.63671 z"
         id="path184"
         clip-path="url(#clipath_lpe_path-effect188)"
         inkscape:path-effect="#path-effect188"
         inkscape:original-d="m 1689.7852,757.91992 -0.3518,-0.32227 -1.5234,2.63671 z"
         transform="translate(-1463.711,2110.7137)" /><path
         style="fill:#ff0000;fill-opacity:1;stroke:none;stroke-width:79.956;stroke-linecap:round;stroke-opacity:1;paint-order:stroke markers fill"
         d="m 1689.7852,757.91992 -0.3518,-0.32227 -1.5234,2.63671 z"
         id="path3"
         clip-path="url(#clipath_lpe_path-effect7)"
         inkscape:path-effect="#path-effect7"
         inkscape:original-d="m 1689.7852,757.91992 -0.3518,-0.32227 -1.5234,2.63671 z"
         transform="matrix(1.1015678,0,0,0.89454356,-3145.6779,2228.0539)" /><path
         style="fill:#ffffff;fill-opacity:1;stroke:#000000;stroke-width:1.13386;stroke-dasharray:none;stroke-opacity:1"
         d="m 12695.853,1228.3782 h -79.805 l -30.438,24.3515 -30.437,24.3514 11.095,8.0334 11.095,8.0333 61.927,-21.3815 61.927,-21.3814 46.404,15.3085 46.404,15.3085 v 12.7475 12.7474 l -64.7,-7.6019 -64.701,-7.602 -36.318,23.7975 -36.319,23.7977 v 91.0282 91.0281 h 22.959 22.959 l -6.396,-66.8409 -6.396,-66.8409 29.778,-32.9059 29.779,-32.9057 h 24.28 24.281 l 30.397,24.3193 30.397,24.3196 v 75.4189 75.4191 h 27.551 27.55 v -119.6861 -119.6862 l -36.734,-26.5969 -36.734,-26.5969 z m 1273.221,0 h -68.956 l -43.361,25.4522 -43.361,25.4522 13.666,9.9308 13.665,9.9309 62.35,-24.3113 62.349,-24.3112 57.146,17.1385 57.147,17.1385 v 17.0689 17.0688 l -72.072,-6.999 -72.072,-6.9993 -47.314,34.257 -47.314,34.2572 v 41.1043 41.1043 l 45.083,32.6417 45.083,32.6417 h 47.959 47.96 l 37.743,-14.6253 37.743,-14.6251 -12.483,14.6251 -12.484,14.6253 h 28.634 28.635 v -118.721 -118.7209 l -48.395,-27.5622 -48.394,-27.5621 z m 26.042,106.3878 h 17.425 l 33.589,22.0087 33.589,22.0088 v 36.8845 36.8842 l -28.863,20.8978 -28.862,20.8975 h -22.152 -22.152 l -40.821,-20.7018 -40.821,-20.7018 v -38.3872 -38.3873 l 40.821,-20.7016 40.821,-20.7018 z m -6829.3905,-93.0893 h -83.2742 l -59.9827,38.7883 -59.9826,38.7882 -6.3099,126.2803 -6.3102,126.2802 62.0422,49.0173 62.0419,49.017 82.0209,6.0679 82.0209,6.0678 60.7981,-27.617 60.7981,-27.617 26.4454,-45.8264 26.4454,-45.8261 v -81.5329 -81.5327 l -30.0275,-45.8155 -30.0272,-45.8157 -51.7123,-19.3618 -51.7123,-19.3619 z m 7.9816,106.3877 h 29.3873 l 22.0404,15.9582 22.0405,15.9581 v 83.3124 83.3124 l -33.8946,13.1339 -33.8943,13.1339 -39.5739,-20.0693 -39.5736,-20.0693 v -76.377 -76.377 l 22.0405,-15.9581 22.0404,-15.9582 z m 468.3598,-106.3877 h -38.5708 l -22.0405,15.9582 -22.0404,15.9581 v 147.0738 147.0737 l -36.7341,16.6099 -36.7341,16.6102 v 23.8244 23.8247 l 22.0404,15.9581 22.0405,15.9582 h 78.332 78.3321 l 19.0134,-25.7228 19.0133,-25.7226 V 1451.3367 1273.593 l -22.0405,-15.9581 -22.0405,-15.9582 z m 314.8294,0 h -41.1603 l -22.0404,15.9582 -22.0405,15.9581 v 148.7215 148.7217 l -36.7341,6.9553 -36.7341,6.9552 v 31.8314 31.8316 l 22.0404,15.9581 22.0405,15.9582 65.203,-0.2037 65.2031,-0.2036 24.5339,-11.2599 24.534,-11.2599 -2.0911,-196.5371 -2.0914,-196.5373 -9.7515,-11.4239 -9.7514,-11.4239 z m 456.5868,0.521 -73.4682,-0.4217 -56.5649,24.9745 -56.5649,24.9744 -23.4679,41.0216 -23.468,41.0215 6.6905,106.6698 6.6905,106.6697 57.3329,41.5112 57.3326,41.5113 80.2944,5.7486 80.2942,5.7485 45.3663,-17.3674 45.3664,-17.3675 41.8771,-44.9928 41.8772,-44.9929 -0.12,-101.0963 -0.1225,-101.0966 -35.5064,-38.9987 -35.5065,-38.9987 -42.4325,-17.0486 -42.4323,-17.0485 z m 0,105.8667 h 44.6251 l 19.0133,25.7226 19.0133,25.7228 v 54.9423 54.9424 l -19.0133,25.7226 -19.0133,25.7227 h -41.598 -41.5979 l -22.0405,-15.9581 -22.0404,-15.9582 v -64.7069 -64.7068 l 19.0133,-25.7228 19.0131,-25.7226 z m -2470.3685,-49.4107 -835.7008,-2.8661 -50.2785,19.8263 -50.2787,19.8262 -27.7812,38.898 -27.7815,38.8978 0.2706,881.6835 0.2708,881.6837 22.688,31.9642 22.6882,31.9642 51.8352,27.8788 51.8353,27.8789 h 517.5433 517.5434 l 50.2953,-10.1883 50.2954,-10.1883 103.4582,-99.5241 103.4581,-99.5239 h 136.7351 136.7349 l 35.5265,-13.7664 35.5268,-13.7664 v -32.3103 -32.3105 l -35.5268,-13.7662 -35.5265,-13.7664 -161.9193,0.2036 -161.919,0.2037 -19.7122,9.7701 -19.7121,9.7703 -106.4909,103.0631 -106.4907,103.0631 h -499.1951 -499.1952 l -22.0405,-15.9581 -22.0404,-15.9582 v -861.2725 -861.2726 l 35.5265,-13.7662 35.5268,-13.7664 h 788.7417 788.7416 l 22.0261,-19.2158 22.0257,-19.2157 -6.0016,-30.6535 -6.0016,-30.6535 z m 3005.0082,9.5153 h -39.8117 l -50.2856,136.3093 -50.2855,136.3092 0.3173,9.9739 0.3174,9.9738 h 24.7686 24.7686 l 41.9273,-114.9136 41.9273,-114.9134 13.4983,18.4995 13.4984,18.4998 31.9865,96.4139 31.9866,96.4138 h 41.0685 41.0685 l 32.7627,-113.0369 32.7629,-113.037 h 13.7294 13.7298 l 11.139,40.3256 11.1392,40.3257 29.1941,72.7112 29.1943,72.7114 h 27.485 27.4849 l -10.4212,-26.5969 -10.4212,-26.5969 -7.9958,-23.2723 -7.9958,-23.2724 -39.0366,-97.233 -39.0366,-97.233 -39.5325,4.1438 -39.5325,4.1438 -38.2419,119.6861 -38.2422,119.6862 -42.5521,-123.0108 -42.552,-123.0108 z m 561.8843,0 h -53.8316 l -48.3948,27.5621 -48.3944,27.5622 v 49.721 49.7212 l 37.4494,29.1045 37.4497,29.1044 h 60.3676 60.3676 l 39.9356,-30.7786 39.9358,-30.7787 v -29.0644 -29.0644 h -110.2023 -110.2023 v -12.3486 -12.3486 l 28.8625,-20.8976 28.8625,-20.8975 h 31.9116 31.9117 l 35.6529,19.5248 35.6529,19.5246 13.7752,0.4231 13.7753,0.4228 v -19.4797 -19.48 l -35.5267,-13.7662 -35.5266,-13.7664 z m -12.868,119.6862 h 82.6518 v 19.4798 19.4797 l -39.0574,15.1346 -39.0574,15.1345 -43.5944,-14.3815 -43.5943,-14.3815 v -20.2328 -20.2328 z M 9865.564,1308.169 h -28.6344 v 103.5619 103.5619 l 77.1724,2.2281 77.1728,2.2283 23.8462,-14.3292 23.846,-14.3292 v -18.3194 -18.3193 h -20.934 -20.9339 l -20.8765,20.6715 -20.8762,20.6715 -29.2517,-8.1273 -29.2513,-8.1272 -11.898,-73.2965 -11.8979,-73.2963 10.5755,-12.3894 10.5755,-12.3894 z m 345.838,0 h -58.163 l -39.327,23.2723 -39.328,23.2723 -10.809,48.8923 -10.809,48.8922 47.267,34.2232 47.267,34.2231 h 53.901 53.901 l 36.831,-23.2723 36.831,-23.2723 11.471,-36.5708 11.472,-36.5707 h -121.266 -121.267 l 7.595,-16.6231 7.595,-16.6231 49.251,-19.9477 49.25,-19.9477 54.477,22.4833 54.477,22.4831 9.901,-11.5995 9.901,-11.5994 -41.127,-20.8577 -41.129,-20.8575 z m -6.485,119.6862 h 92.481 l -18.994,25.6962 -18.993,25.6963 -38.07,8.7485 -38.07,8.7486 -35.418,-23.2074 -35.418,-23.2074 v -11.2374 -11.2374 z m 306.59,-119.6862 h -32.884 l -11.337,23.2723 -11.337,23.2723 -43.187,78.7589 -43.188,78.759 v 4.3564 4.3565 h 25.311 25.311 l 41.604,-80.5464 41.603,-80.5465 13.172,10.7295 13.171,10.7296 33.745,69.8169 33.744,69.8169 h 25.888 25.887 l -8.325,-16.623 -8.324,-16.6231 -43.986,-89.7646 -43.985,-89.7647 z m 299.249,0 h -57.143 l -45.083,32.6417 -45.083,32.6417 v 44.6415 44.6416 l 37.449,29.1045 37.45,29.1044 58.977,-0.2037 58.978,-0.2036 20.209,-9.7702 20.209,-9.7702 21.117,-29.0473 21.117,-29.0473 v -20.822 -20.8218 h -110.203 -110.202 v -11.2374 -11.2374 l 33.589,-22.0088 33.588,-22.0087 h 27.186 27.185 l 35.653,19.5248 35.653,19.5246 13.775,0.4231 13.776,0.4228 v -19.4797 -19.48 l -35.527,-13.7662 -35.527,-13.7664 z m -9.556,119.6862 h 82.652 v 12.3486 12.3484 l -28.863,20.8978 -28.862,20.8975 h -18.263 -18.263 l -35.526,-13.7664 -35.527,-13.7664 v -19.4797 -19.4798 z m 219.54,-119.6862 h -26.686 v 104.2086 104.2085 l 85.23,-1.1455 85.23,-1.1454 19.731,-22.6345 19.731,-22.6345 -13.013,-9.4219 -13.014,-9.422 -34.19,22.4033 -34.19,22.4031 -30.207,-8.3926 -30.207,-8.3927 -2.597,-55.0956 -2.597,-55.0957 1.732,-29.9215 1.734,-29.9216 z m 330.66,0 h -59.404 l -41.691,24.4431 -41.691,24.4433 13.083,15.3271 13.083,15.3273 52.027,-27.8502 52.026,-27.85 38.831,8.9235 38.832,8.9236 v 18.7982 18.7981 l -50.509,7.8229 -50.51,7.8231 -41.326,12.0929 -41.325,12.0931 v 30.8715 30.8716 l 22.04,15.9582 22.04,15.9581 h 57.765 57.765 l 31.593,-25.2766 31.594,-25.2769 -19.704,-8.8172 -19.705,-8.8174 -29.639,21.4598 -29.639,21.4598 -29.702,-4.1415 -29.702,-4.1416 -5.687,-21.3797 -5.686,-21.3797 82.281,-15.0012 82.282,-15.0012 12.093,-27.587 12.093,-27.5872 -32.053,-25.6439 -32.052,-25.6439 z m 285.873,0 h -57.143 l -45.083,32.6417 -45.083,32.6417 v 44.8309 44.8311 l 42.51,28.9149 42.51,28.9151 53.917,-0.2037 53.917,-0.2036 20.21,-9.7702 20.209,-9.7702 21.116,-29.0473 21.117,-29.0473 v -20.822 -20.8218 h -110.202 -110.203 v -20.277 -20.2768 l 49.989,-13.7609 49.989,-13.7609 46.438,16.988 46.439,16.988 13.775,4.8594 13.775,4.8597 v -20.588 -20.5882 l -35.527,-13.7662 -35.526,-13.7664 z m -9.556,119.6862 h 82.652 v 12.3486 12.3484 l -28.863,20.8978 -28.862,20.8975 h -18.263 -18.262 l -35.527,-13.7664 -35.527,-13.7664 v -19.4797 -19.4798 z m 418.14,-119.6862 h -52.635 l -22.041,15.9582 -22.04,15.9581 v 31.2651 31.265 l 63.694,19.2691 63.695,19.2692 h 45.931 45.931 l -10.304,19.4414 -10.303,19.4415 -37.135,8.5335 -37.135,8.5336 -52.026,-27.85 -52.027,-27.85 -13.083,15.3271 -13.083,15.3272 41.691,24.4432 41.691,24.4432 h 59.404 59.403 l 30.397,-24.3195 30.397,-24.3193 v -62.1207 -62.1205 h 27.551 27.551 v -19.9477 -19.9477 h -45.918 -45.918 v 13.7664 13.7662 l -35.527,-13.7662 -35.526,-13.7664 z m 7.759,26.597 h 26.509 l 35.526,13.7663 35.527,13.7663 v 23.8258 23.8259 l -59.693,-6.0167 -59.693,-6.0168 -23.185,-13.3923 -23.185,-13.392 20.842,-18.1833 20.843,-18.1832 z m 270.77,-26.597 h -26.271 v 106.3877 106.3877 h 18.367 18.367 v -15.9581 -15.9582 l 22.04,15.9582 22.041,15.9581 h 57.764 57.765 l 30.397,-24.3195 30.397,-24.3193 v -82.0684 -82.0682 h -27.55 -27.551 v 78.1624 78.1625 l -28.094,16.8819 -28.095,16.882 -45.374,-14.9686 -45.373,-14.9684 -2.319,-43.5051 -2.319,-43.5051 1.04,-36.5708 1.039,-36.5708 z m 694.003,2.548 -56.62,-4.1014 -19.587,26.4994 -19.588,26.4994 v 67.3665 67.3666 h -27.55 -27.551 v 13.2985 13.2984 h 27.551 27.55 v 33.2462 33.2462 h 27.551 27.551 v -33.2462 -33.2462 h 64.284 64.285 v -13.2984 -13.2985 h -64.285 -64.284 v -73.5589 -73.559 l 30.206,-8.3925 30.207,-8.3926 24.704,24.4622 24.705,24.4623 13.316,-9.641 13.315,-9.6409 -19.57,-22.6345 -19.569,-22.6343 z m 152.161,-2.548 h -27.551 v 146.2831 146.2831 h 27.551 27.55 v -45.7086 -45.7086 l 64.7,7.6021 64.7,7.602 36.319,-23.7977 36.319,-23.7975 v -84.3789 -84.379 h -27.551 -27.55 v 78.1624 78.1625 l -28.095,16.8819 -28.094,16.882 -45.374,-14.9686 -45.374,-14.9684 v -80.0759 -80.0759 z m 296.095,0 h -25.328 l -2.67,106.3877 -2.67,106.3877 h 27.998 27.998 V 1414.5567 1308.169 Z m 107.98,0 h -27.551 v 104.0382 104.0381 l 100.313,1.9109 100.312,1.9109 28.257,-20.4589 28.257,-20.4591 v -85.4899 -85.4902 h -23.683 -23.683 l -4.506,82.6163 -4.506,82.6162 -22.321,10.2693 -22.32,10.2694 -21.647,0.2036 -21.647,0.2037 -28.862,-20.8975 -28.863,-20.8978 v -72.1915 -72.1917 z m -99.489,252.6708 h -38.264 v 20.9228 20.9227 l 30.62,-4.2997 30.62,-4.2996 7.645,-16.6231 7.644,-16.6231 z M 5943.1146,1680.526 h -417.9442 l -22.6671,19.775 -22.6669,19.775 11.666,33.6545 11.6663,33.6547 444.9692,-3.5605 444.9695,-3.5602 6.0016,-30.6535 6.0016,-30.6537 -22.0257,-19.2156 -22.026,-19.2157 z m 5519.2994,80.3016 -110.203,0.073 -75.794,24.9201 -75.794,24.9202 -12.2,14.2927 -12.2,14.2927 28.773,40.2858 28.773,40.286 h 8.268 8.268 l 60.137,-26.5473 60.136,-26.5473 73.469,0.3733 73.468,0.3732 29.142,16.2002 29.142,16.2002 21.367,29.0472 21.368,29.0474 v 13.9772 13.9772 l -59.693,-26.3517 -59.693,-26.3518 -58.829,-0.05 -58.829,-0.05 -44.232,14.5917 -44.231,14.592 -30.101,45.7024 -30.1,45.7024 v 145.8318 145.832 h 91.835 91.835 V 2208.474 2071.4999 l 22.041,-15.9582 22.04,-15.9581 h 50.386 50.386 l 28.592,29.5559 28.593,29.5559 v 123.3764 123.3764 h 93.415 93.416 l -6.172,-216.1 -6.172,-216.1 -37.758,-46.5372 -37.758,-46.5374 -72.444,-29.7101 -72.445,-29.7102 z m 2673.106,0.4261 -101.719,0.9371 -73.426,19.4549 -73.426,19.4548 -22.921,16.5961 -22.922,16.5962 22.314,42.8027 22.315,42.8028 h 10.456 10.457 l 72.052,-26.5969 72.052,-26.5969 h 61.313 61.313 l 51.963,19.4558 51.964,19.4558 11.409,21.5272 11.409,21.5272 v 27.5704 27.5704 l -35.989,-23.5816 -35.988,-23.5815 -86.143,-7.0301 -86.143,-7.0299 -58.237,22.7077 -58.237,22.7079 -35.153,42.4134 -35.153,42.4135 1.009,81.0137 1.008,81.0137 39.575,46.3628 39.575,46.3629 47.233,15.5819 47.233,15.5819 h 70.041 70.041 l 65.151,-32.0119 65.152,-32.0119 9.16,25.3627 9.16,25.3626 h 75.188 75.188 v -217.458 -217.4581 l -41.474,-45.1866 -41.475,-45.1865 -81.803,-29.9216 -81.804,-29.9215 z m 47.395,291.6293 h 59.441 l 39.503,36.3608 39.502,36.361 -10.837,39.2326 -10.837,39.2326 -30.179,24.1449 -30.179,24.145 h -57.928 -57.927 l -35.653,-18.8757 -35.653,-18.8758 v -61.987 -61.9871 l 35.653,-18.8757 35.653,-18.8756 z m -7009.2079,-264.6958 -9.1835,1.1252 -56.1133,11.8078 -56.1131,11.8076 -44.9057,34.5843 -44.9055,34.5844 -6.3667,125.3332 -6.367,125.3332 63.1405,45.7162 63.1403,45.7161 52.253,9.4956 52.2531,9.4955 74.0451,-18.6856 74.0452,-18.6854 41.9246,-45.1866 41.9247,-45.1868 V 2014.108 1912.7739 l -46.0107,-49.0252 -46.0105,-49.0251 -68.7836,-13.8307 -68.7834,-13.831 z m 18.238,121.1658 46.0467,3.8961 9.4749,68.1385 9.4747,68.1385 -10.2277,31.6 -10.2278,31.5999 -41.584,4.3454 -41.5837,4.3455 -26.5397,-15.9476 -26.5396,-15.9477 v -75.5028 -75.5026 l 22.8297,-16.5297 22.8298,-16.5298 z m 602.24,-122.4187 -23.5488,0.021 -62.9791,23.2516 -62.979,23.2517 -38.0399,37.5927 -38.0396,37.5928 v 108.6903 108.6904 l 41.6349,42.2625 41.6349,42.2626 65.1727,15.5734 65.173,15.5732 58.4956,-8.4056 58.4959,-8.4056 38.6291,-23.3841 38.6293,-23.3838 21.0636,-28.4967 21.0638,-28.4966 v -112.1178 -112.1177 l -39.8181,-36.6511 -39.8178,-36.6511 -60.611,-18.3363 -60.6108,-18.3361 z m 2.5772,119.6656 h 30.8119 l 22.0404,15.9581 22.0405,15.9582 -0.2814,73.8064 -0.2811,73.8065 -15.4871,17.6879 -15.4869,17.688 -53.1082,-4.3896 -53.1082,-4.3894 -5.5099,-84.2766 -5.5098,-84.2764 21.534,-18.7867 21.5342,-18.7864 z m 607.5373,-118.8615 -9.1835,0.6764 -63.6487,15.8725 -63.6487,15.8726 -43.4582,46.5446 -43.4579,46.5446 6.0878,115.3076 6.0881,115.3076 43.14,33.2309 43.1401,33.2307 52.9808,15.8894 52.9809,15.8892 65.4031,-8.8837 65.4029,-8.8838 58.8808,-38.0914 58.8806,-38.0914 6.5091,-114.7007 6.509,-114.7008 -47.4548,-51.9199 -47.4546,-51.92 -69.2568,-13.9254 -69.2565,-13.9255 z m 9.1835,118.8615 h 44.6251 l 19.0133,25.7226 19.0133,25.7227 v 54.9424 54.9423 l -19.0133,25.7226 -19.0133,25.7228 h -44.6251 -44.6253 l -19.0131,-25.7228 -19.0133,-25.7226 v -54.9423 -54.9424 l 19.0133,-25.7227 19.0131,-25.7226 z m -2537.1726,3.0476 -347.5264,-3.6014 -22.423,16.235 -22.4227,16.2351 v 22.3088 22.3089 l 25.3389,15.2262 25.3387,15.2261 344.6114,-3.6239 344.6115,-3.624 20.2556,-23.2723 20.2557,-23.2723 -20.2566,-23.2723 -20.2564,-23.2723 z m 612.6068,-0.52 -47.4215,-4.1217 -20.2488,27.394 -20.2486,27.3939 20.2486,27.394 20.2488,27.3939 47.4215,-4.1216 47.4215,-4.1217 20.1257,-23.2723 20.1256,-23.2723 -20.1256,-23.2723 -20.1257,-23.2723 z m 3879.4497,24.2881 -99.812,0.2186 -71.741,29.7029 -71.742,29.7028 -36.886,36.0191 -36.887,36.0194 -8.459,73.8547 -8.459,73.8548 47.214,51.6568 47.214,51.6565 83.317,23.0383 83.317,23.038 89.82,-6.2488 89.82,-6.2489 57.841,-29.8204 57.841,-29.8205 27.157,-47.0604 27.158,-47.0606 v -38.2714 -38.2712 h -211.221 -211.221 v -13.903 -13.9029 l 45.082,-32.6417 45.083,-32.6417 h 67.544 67.543 l 57.269,25.5336 57.269,25.5336 43.307,-25.5024 43.308,-25.5025 -9.685,-18.2737 -9.685,-18.2739 -80.747,-28.3019 -80.748,-28.302 z m -26.343,252.452 h 119.385 v 10.3395 10.3394 l -28.592,29.5559 -28.592,29.556 h -62.201 -62.202 l -28.592,-29.556 -28.592,-29.5559 v -10.3394 -10.3395 z m 1794.183,-252.2665 -67.681,0.4044 -36.734,14.6265 -36.734,14.6266 -31.734,28.189 -31.734,28.1892 -0.408,116.3615 -0.408,116.3616 h -55.102 -55.101 v 46.5446 46.5446 h 55.101 55.102 v 58.1808 58.1808 l 57.397,8.3115 57.397,8.3116 h 34.438 34.438 v -65.8287 -65.8288 l 105.611,-3.9881 105.61,-3.9883 v -39.8954 -39.8954 l -106.366,-4.0046 -106.366,-4.0046 5.347,-102.3831 5.348,-102.3831 56.665,-4.0037 56.666,-4.0037 23.643,20.6268 23.644,20.6268 h 13.889 13.89 l 23.122,-40.4165 23.121,-40.4164 -34.668,-19.8813 -34.669,-19.8812 -42.522,-12.8439 -42.521,-12.8438 z m -3043.143,12.8942 h -284.6893 v 279.2677 279.2677 h 284.6893 284.6893 v -53.1939 -53.1938 h -183.6705 -183.6705 v -59.8431 -59.8431 h 156.1199 156.12 v -46.5446 -46.5446 h -156.12 -156.1199 v -66.4923 -66.4923 h 183.6705 183.6705 v -53.1939 -53.1938 z m 617.8754,2.6855 -113.2571,-3.9636 -11.7994,23.9113 -11.7998,23.9114 -95.7121,176.2046 -95.7122,176.2046 h 94.2222 94.2223 l 63.7887,-132.9846 63.7888,-132.9846 h 11.3973 11.3972 l 62.1741,132.9846 62.1742,132.9846 h 94.6846 94.6848 l -82.4168,-149.6077 -82.4164,-149.6077 -23.0815,-46.5446 -23.0815,-46.5446 z m 1062.7096,-2.6855 h -91.835 v 199.4769 199.4769 h 82.652 82.651 v -21.0323 -21.0323 l 61.861,27.6816 61.861,27.6815 h 49.549 49.549 l 35.336,-13.6928 35.337,-13.6926 27.741,-38.8408 27.74,-38.8407 v -18.9906 -18.9903 l -72.896,-13.3971 -72.896,-13.3969 -10.467,23.8768 -10.467,23.877 -25.958,15.598 -25.957,15.5982 -36.081,-8.2913 -36.08,-8.2913 -19.902,-41.3365 -19.903,-41.3365 v -111.0525 -111.0524 z m 1708.136,0 h -91.835 v 292.5661 292.5662 h 91.835 91.835 v -112.8415 -112.8414 l 59.693,26.3517 59.693,26.3517 69.523,0.05 69.522,0.05 43.898,-20.8252 43.897,-20.8252 19.741,-41.0024 19.741,-41.0023 v -144.2986 -144.2986 h -91.835 -91.835 v 127.2095 127.2098 l -19.013,25.7225 -19.014,25.7228 h -51.608 -51.608 l -30.397,-24.3195 -30.398,-24.3193 v -128.613 -128.6128 z m 624.48,0 h -91.835 v 199.4769 199.4769 h 91.835 91.835 v -199.4769 -199.4769 z m 238.772,0 h -91.836 v 199.4769 199.4769 h 80.51 80.509 l 11.326,-29.9215 11.325,-29.9215 13.776,14.0692 13.775,14.0692 45.413,22.5016 45.413,22.5015 h 79.977 79.978 l 53.689,-38.8725 53.688,-38.8724 V 2113.749 1946.4953 h -91.835 -91.836 v 136.9741 136.9742 l -22.04,15.9581 -22.041,15.9582 h -50.386 -50.386 l -28.592,-29.5559 -28.592,-29.5559 v -123.3764 -123.3764 z m -7291.72,174.6042 -486.7269,1.361 -32.1299,6.0799 -32.1298,6.0801 -11.247,32.4454 -11.247,32.4456 22.6669,19.7749 22.6671,19.775 h 526.8849 526.885 l 33.7697,-17.8786 33.7694,-17.8786 -11.691,-33.7262 -11.691,-33.7261 -41.5269,-8.0568 -41.5267,-8.0567 z m -173.5687,224.7539 -331.5253,0.4045 -32.1423,13.5548 -32.1423,13.5549 v 32.1175 32.1174 l 35.5265,13.7664 35.5268,13.7664 h 314.6547 314.6548 l 35.5265,-13.7664 35.5268,-13.7664 v -30.1185 -30.1185 l -22.0404,-15.9582 -22.0405,-15.9582 z m 606.7291,-0.4043 h -23.392 l -30.3972,24.3194 -30.3973,24.3195 v 13.5148 13.515 l 33.5885,22.0087 33.5887,22.0088 h 20.2005 20.2008 l 28.8625,-20.8976 28.8625,-20.8977 v -18.0478 -18.0479 l -28.8625,-20.8976 -28.8625,-20.8976 z m 721.3148,5.928 -61.6357,-6.1547 -56.6589,18.4955 -56.6589,18.4953 -39.7681,36.6052 -39.7681,36.6053 v 119.2225 119.2227 l 60.9994,44.1659 60.9992,44.1658 66.7713,9.0698 66.7714,9.0695 69.675,-24.6438 69.6753,-24.6438 32.1137,-46.5447 32.1139,-46.5446 0.029,-83.5425 0.029,-83.5426 -26.0166,-45.0832 -26.0163,-45.083 -45.5091,-21.59 -45.5092,-21.5898 z m -15.8471,116.5113 46.0467,3.8961 v 99.7385 99.7385 l -42.3368,4.3454 -42.3368,4.3454 -26.5397,-15.9475 -26.5396,-15.9477 v -75.5028 -75.5027 l 22.8297,-16.5296 22.8298,-16.5298 z m 445.3956,-122.4393 h -20.2006 l -28.8624,20.8976 -28.8625,20.8976 v 151.9824 151.9825 h -25.5856 -25.5855 l -11.1486,21.0353 -11.1485,21.0353 v 11.261 11.2608 l 28.8624,20.8977 28.8625,20.8976 h 61.6609 61.6609 l 28.8625,-20.8976 28.8625,-20.8977 v -183.1674 -183.1675 l -33.5887,-22.0088 -33.5885,-22.0088 z m 491.0223,6.1886 -63.8539,-6.4153 -59.3312,19.309 -59.3312,19.309 -37.0272,43.972 -37.027,43.9721 v 99.7385 99.7385 l 37.0674,44.0202 37.0676,44.0202 66.8517,20.2241 66.8516,20.2242 64.6009,-8.7747 64.6008,-8.7749 60.9994,-44.1658 60.9995,-44.1659 -0.2709,-111.0422 -0.2706,-111.0422 -22.6882,-31.9641 -22.688,-31.9642 -46.3483,-24.9015 -46.3484,-24.9015 z m -29.7093,113.4976 h 41.1603 l 22.0405,15.9582 22.0405,15.9581 v 74.4714 74.4714 l -22.0405,15.9582 -22.0405,15.9581 h -42.6987 -42.699 l -15.5263,-29.9215 -15.526,-29.9216 4.5594,-61.8158 4.5595,-61.8159 12.5052,-14.6503 12.5053,-14.6503 z m 470.9493,-119.6862 h -29.3872 l -22.0405,15.9582 -22.0405,15.9582 v 145.4229 145.4231 l -47.6649,31.9841 -47.665,31.984 26.7905,29.3839 26.7904,29.3842 56.7601,4.1212 56.7598,4.1215 37.5826,-14.5632 37.583,-14.5631 v -196.3493 -196.3493 l -22.0405,-15.9582 -22.0405,-15.9582 z m 4564.212,62.881 -36.734,-6.2967 -29.583,5.5722 -29.583,5.5723 -21.561,34.2614 -21.56,34.2615 28.608,31.6125 28.609,31.6128 h 53.365 53.366 l 28.863,-20.8976 28.862,-20.8977 v -23.1053 -23.1053 l -22.959,-21.1465 -22.958,-21.1467 z m -3713.3644,366.3042 -88.6149,-5.9506 -40.9076,27.9908 -40.9073,27.991 -29.2901,72.9497 -29.2898,72.9497 -34.2058,13.2544 -34.2056,13.2545 h -56.3087 -56.3085 v -106.3877 -106.3877 h -101.0188 -101.0188 v 279.2677 279.2678 h 249.7711 249.7711 l 64.6373,-22.2081 64.6371,-22.2079 34.497,-40.9598 34.497,-40.9596 0.069,-37.2313 0.069,-37.2311 -27.4565,-38.443 -27.4566,-38.4428 -53.6298,-22.9376 -53.6299,-22.9374 23.9382,-27.7239 23.9381,-27.7237 22.3366,-50.9617 22.3363,-50.9615 44.4184,8.0718 44.4183,8.0719 16.1202,-30.2519 16.1201,-30.2517 -24.3554,-18.4799 -24.3552,-18.4797 z m -303.9228,315.5288 h 106.1155 l 40.8209,20.7018 40.8209,20.7016 v 28.1204 28.1204 l -30.3972,24.3193 -30.3972,24.3196 h -116.5392 -116.5392 v -73.1416 -73.1415 z m 799.0517,-317.9638 -87.8335,1.1993 -55.6796,11.7265 -55.6795,11.7262 -58.9502,41.7299 -58.9501,41.7296 -19.3126,51.9293 -19.3126,51.9293 12.255,47.298 12.2552,47.298 47.3613,40.7532 47.3615,40.7533 59.9606,18.1394 59.9606,18.1395 h 74.6481 74.6481 l 59.9602,-18.1395 59.961,-18.1394 49.652,-42.7241 49.652,-42.7239 v -58.8228 -58.8227 h -202.0381 -202.0375 v -18.9825 -18.9824 l 50.5094,-28.8591 50.5093,-28.8591 78.8052,6.3735 78.8057,6.3733 36.181,23.7076 36.181,23.7077 45.698,-31.0835 45.698,-31.0837 -32.115,-26.1329 -32.115,-26.1329 -59.103,-18.1121 -59.103,-18.1123 z m -41.9158,251.4715 h 110.2023 v 18.9978 18.9976 l -28.8625,20.8978 -28.8625,20.8975 h -47.7514 -47.7511 l -33.5887,-22.0087 -33.5884,-22.0088 v -17.8866 -17.8866 z m 1302.8533,-251.586 -99.811,1.0848 -57.275,18.1864 -57.273,18.1863 -47.854,41.1766 -47.853,41.1765 -18.478,49.6839 -18.477,49.6838 18.27,47.911 18.271,47.911 39.542,36.3966 39.541,36.3967 60.611,18.3361 60.611,18.3363 h 77.443 77.443 l 74.675,-26.231 74.675,-26.2308 25.899,-30.1907 25.898,-30.1908 13.996,-44.9304 13.996,-44.9305 -9.717,-18.334 -9.717,-18.3342 h -200.073 -200.072 v -18.9825 -18.9824 l 50.509,-28.8591 50.51,-28.8591 78.805,6.3735 78.805,6.3733 36.181,23.7076 36.182,23.7077 44.398,-30.1998 44.399,-30.1997 -9.498,-17.921 -9.498,-17.9211 -77.626,-27.2079 -77.626,-27.2079 z m -26.92,251.586 h 118.81 l -11.459,23.2723 -11.458,23.2723 -17.765,16.6231 -17.764,16.623 h -55.998 -55.998 l -33.589,-22.0087 -33.588,-22.0088 v -17.8866 -17.8866 z m 1158.342,-249.0386 -129.21,-5.3047 -58.695,26.7982 -58.695,26.7984 -30.132,33.2961 -30.131,33.2962 11.85,13.8834 11.851,13.8833 h 64.848 64.848 l 33.126,-29.6194 33.126,-29.6193 h 76.357 76.357 l 15.739,18.4395 15.74,18.4395 -8.907,16.8053 -8.906,16.8054 -128.781,16.6633 -128.78,16.6633 -44.284,25.221 -44.284,25.221 v 46.4537 46.4536 l 18.911,25.585 18.912,25.585 53.645,20.0853 53.644,20.0855 88.156,-0.021 88.155,-0.021 64.029,-23.2517 64.03,-23.2516 22.594,-33.2297 22.594,-33.2296 -31.522,-9.0557 -31.522,-9.0556 -41.326,-0.9348 -41.326,-0.9346 -36.734,26.5969 -36.734,26.597 h -43.669 -43.669 l -23.511,-20.5114 -23.511,-20.5112 18.656,-13.5077 18.656,-13.5075 124.577,-18.8721 124.578,-18.8721 41.076,-19.4869 41.077,-19.487 12.498,-36.0543 12.498,-36.0543 -21.284,-37.2027 -21.283,-37.2025 -48.01,-22.7767 -48.011,-22.7769 z m 624.539,-2.0896 -92.535,1.5426 -36.734,6.4615 -36.735,6.4612 -61.641,33.6444 -61.642,33.6444 -25.602,44.3644 -25.602,44.3646 0.03,50.2964 0.03,50.2963 32.114,46.3443 32.114,46.3441 73.468,29.9033 73.468,29.9031 91.836,0.198 91.835,0.1983 64.008,-23.2518 64.008,-23.2515 41.3,-53.1939 41.301,-53.1939 0.302,-43.22 0.302,-43.22 h -211.221 -211.221 v -13.9029 -13.9029 l 45.083,-32.6417 45.082,-32.6417 h 71.826 71.827 l 48.085,27.3863 48.086,27.3863 45.97,-24.0617 45.97,-24.0617 -4.335,-19.9477 -4.335,-19.9477 -81.952,-29.9215 -81.952,-29.9215 z m -37.434,251.1282 h 119.386 v 10.3394 10.3395 l -28.592,29.5559 -28.593,29.5559 h -62.201 -62.202 l -28.592,-29.5559 -28.592,-29.5559 v -10.3395 -10.3394 z m -2382.003,-239.3724 h -104.565 l -8.632,10.1125 -8.632,10.1127 -95.497,172.7412 -95.498,172.7414 -9.522,17.3773 -9.521,17.3774 97.209,-4.0789 97.209,-4.0789 50.126,-106.3877 50.127,-106.3877 17.042,-31.6752 17.042,-31.675 69.574,141.3873 69.573,141.3875 h 91.368 91.368 l -6.123,-11.8752 -6.122,-11.8753 -100.981,-187.6016 -100.98,-187.6018 z m 1068.759,0 h -91.836 v 199.477 199.4769 h 71.503 71.504 l 11.098,-20.9413 11.099,-20.9412 48.445,27.5904 48.444,27.5906 h 57.721 57.721 l 42.761,-21.6857 42.761,-21.6858 26.686,-46.244 26.687,-46.2439 -5.668,-3.8209 -5.668,-3.821 -68.618,-13.5658 -68.618,-13.5657 -23.389,35.4472 -23.389,35.4471 -39.381,4.0812 -39.38,4.0812 -29.324,-30.3125 -29.324,-30.3125 v -130.0256 -130.0257 z m -4553.6048,119.6862 h -30.8118 l -22.0405,15.9581 -22.0404,15.9582 v 147.0737 147.0738 l -37.8707,17.1238 -37.8706,17.124 5.7283,35.6994 5.7283,35.6995 50.5094,12.7856 50.5094,12.7859 50.5094,-12.8447 50.5094,-12.8449 5.0947,-197.3717 5.0948,-197.3717 -21.1189,-18.4244 -21.1192,-18.4246 z m 454.9759,0.3028 -43.1418,0.3027 -56.0442,20.0264 -56.044,20.0265 -30.5162,37.4039 -30.5165,37.4038 -12.0787,54.6916 -12.0789,54.6918 12.508,60.3921 12.5082,60.392 45.4063,39.0709 45.4065,39.0709 65.1878,15.5769 65.1879,15.5769 80.0394,-22.132 80.0397,-22.132 40.2031,-60.1303 40.2033,-60.1305 -8.8436,-89.4914 -8.8437,-89.4916 -31.3273,-34.6173 -31.3271,-34.6173 -61.3932,-21.0935 -61.3932,-21.0933 z m 21.0139,122.1365 46.0467,3.8961 5.3852,96.0163 5.3854,96.0162 -46.9498,8.5319 -46.9496,8.5318 -27.3121,-16.4119 -27.312,-16.4118 v -75.5028 -75.5026 l 22.8297,-16.5297 22.8298,-16.5298 z m 442.3628,-122.4393 h -30.8118 l -22.0404,15.9581 -22.0405,15.9582 v 149.8047 149.8047 l -37.8349,14.6608 -37.8349,14.6609 5.6925,35.4315 5.6926,35.4316 50.5094,12.7856 50.5094,12.7859 50.5094,-12.8447 50.5094,-12.8449 5.0948,-197.3717 5.0947,-197.3717 -21.1189,-18.4244 -21.1192,-18.4246 z m 461.3801,0 h -53.2972 l -62.1414,30.3207 -62.1416,30.3206 -22.9556,32.8471 -22.9557,32.847 -0.2708,101.0965 -0.2706,101.0963 41.8754,45.1868 41.8756,45.1866 74.0496,17.1006 74.0498,17.1007 71.6656,-17.1007 71.6655,-17.1006 41.9974,-45.1866 41.9974,-45.1868 -0.069,-101.0963 -0.069,-101.0965 -35.8532,-42.5744 -35.8532,-42.5744 -55.0013,-20.5933 -55.0012,-20.5933 z m 5.5552,119.6862 h 44.6251 l 19.0133,25.7226 19.0133,25.7227 v 54.9424 54.9423 l -19.0133,25.7226 -19.0133,25.7228 h -44.6251 -44.6253 l -19.0131,-25.7228 -19.0133,-25.7226 v -54.9423 -54.9424 l 19.0133,-25.7227 19.0131,-25.7226 z m -3085.935,-66.4924 h -25.1974 l -28.349,29.3047 -28.3491,29.3049 24.9103,27.2136 24.9104,27.2138 27.7186,3.9888 27.7183,3.9888 29.7801,-21.5617 29.7799,-21.562 v -18.0478 -18.0479 l -28.8625,-20.8976 -28.8625,-20.8976 z m 312.7806,0 h -25.1972 l -28.8625,20.8976 -28.8624,20.8976 v 18.0479 18.0478 l 29.7798,21.562 29.7799,21.5617 27.7185,-3.9888 27.7186,-3.9888 24.9104,-27.2138 24.9104,-27.2136 -28.3492,-29.3049 -28.3492,-29.3047 z m 299.4015,0.4043 -5.7991,0.4045 -32.1423,13.5548 -32.1424,13.5549 v 32.1175 32.1174 l 36.7341,14.2343 36.7341,14.2342 36.7341,-14.2342 36.7342,-14.2343 v -32.3103 -32.3105 l -35.5268,-13.7662 -35.5266,-13.7664 z"
         id="path10" /></g></g></svg>
